<svg width="362" height="68" viewBox="0 0 362 68" fill="none" xmlns="http://www.w3.org/2000/svg">
<g clip-path="url(#clip0_23_4171)">
<path d="M104.179 0V15.974H66.7157V0H60.0293V38.6079H66.7157V22.6585H104.179V38.6079H110.89V0H104.179Z" fill="white"/>
<path d="M145.306 0L119.568 38.6079H127.631L132.548 31.2598L136.997 24.5508L148.846 6.7828L160.719 24.5508L165.144 31.2598L170.085 38.6079H178.124L152.386 0H145.306Z" fill="white"/>
<path d="M276.995 0L251.232 38.6079H259.32L264.212 31.2598L268.686 24.5508L280.535 6.7828L292.383 24.5508L296.833 31.2598L301.749 38.6079H309.812L284.074 0H276.995Z" fill="white"/>
<path d="M318.488 0V38.6079H361.999V31.8988H325.175V0H318.488Z" fill="white"/>
<path d="M214.751 8.77338C210.456 8.86427 206.256 7.50497 202.829 4.91505C198.327 1.62316 192.87 -0.103274 187.293 -1.8236e-05V6.70905C191.554 6.64594 195.714 8.00351 199.117 10.5674C203.618 13.8626 209.076 15.5893 214.653 15.4825C220.223 15.5894 225.673 13.8624 230.165 10.5674C233.594 7.98262 237.793 6.62391 242.087 6.70905V-1.8236e-05C236.544 -0.081765 231.124 1.6436 226.649 4.91505C223.23 7.50143 219.038 8.86065 214.751 8.77338Z" fill="white"/>
<path d="M214.751 26.8362C210.455 26.9388 206.251 25.5783 202.829 22.9779C198.327 19.686 192.87 17.9596 187.293 18.0628V38.6078H194.004V25.8287C195.806 26.5718 197.521 27.5114 199.117 28.6302C203.618 31.9254 209.076 33.6522 214.653 33.5453C220.223 33.6523 225.673 31.9252 230.165 28.6302C231.792 27.505 233.54 26.5653 235.376 25.8287V38.6078H242.087V18.0628C236.51 17.9596 231.053 19.686 226.551 22.9779C223.137 25.5747 218.942 26.9352 214.653 26.8362" fill="white"/>
<path d="M41.1005 38.6079H2.08828V31.948H41.1005C41.519 31.9448 41.9328 31.8588 42.3179 31.6949C42.7031 31.5311 43.0519 31.2927 43.3444 30.9934C43.637 30.6941 43.8673 30.3399 44.0222 29.9512C44.1771 29.5625 44.2535 29.147 44.247 28.7286V26.2711C44.247 25.4303 43.9129 24.6239 43.3182 24.0294C42.7235 23.4348 41.9169 23.1008 41.0759 23.1008H10.3725C8.99867 23.0977 7.63905 22.8224 6.37223 22.2908C5.10542 21.7593 3.95652 20.9821 2.99193 20.0041C2.02734 19.026 1.26618 17.8666 0.752434 16.5928C0.238684 15.3189 -0.0174695 13.956 -0.00122629 12.5826V10.3708C-0.00122629 7.62029 1.09172 4.98244 3.03718 3.03754C4.98264 1.09263 7.62124 0 10.3725 0H48.8931V6.70907H10.3725C9.40111 6.70907 8.46947 7.09486 7.78256 7.78157C7.09566 8.46827 6.70976 9.39965 6.70976 10.3708V12.5826C6.70974 13.556 7.09485 14.4899 7.78106 15.1805C8.46726 15.8712 9.39885 16.2624 10.3725 16.2689H41.1005C43.7084 16.2689 46.2094 17.3046 48.0534 19.1481C49.8975 20.9916 50.9334 23.4919 50.9334 26.099V28.5566C50.9334 31.1637 49.8975 33.664 48.0534 35.5075C46.2094 37.351 43.7084 38.3867 41.1005 38.3867" fill="white"/>
<path d="M79.9413 57.9733V59.1529H76.8685V67.8034H75.4919V59.1529H72.3945V57.9733H79.9413Z" fill="white"/>
<path d="M91.8887 67.8034V57.9733H97.8868V59.1529H93.2653V62.0774H97.3705V63.2078H93.2653V66.6238H98.2309V67.8034H91.8887Z" fill="white"/>
<path d="M114.284 68C113.636 68.0111 112.993 67.8941 112.391 67.656C111.839 67.4422 111.343 67.1061 110.941 66.6729C110.525 66.2085 110.208 65.6653 110.006 65.0755C109.771 64.3707 109.655 63.6315 109.662 62.8883C109.641 62.14 109.775 61.3953 110.056 60.7011C110.273 60.0952 110.616 59.5424 111.064 59.0792C111.475 58.6449 111.979 58.3089 112.538 58.0961C113.118 57.8673 113.735 57.7506 114.358 57.7521C114.726 57.7252 115.096 57.7252 115.464 57.7521L116.3 57.9487L116.89 58.1944L117.209 58.3665L116.816 59.4969L116.447 59.3003L115.906 59.1037L115.218 58.9809H114.505C114.025 58.9776 113.548 59.0695 113.104 59.2512C112.686 59.4239 112.315 59.6934 112.022 60.0376C111.719 60.3975 111.493 60.8157 111.358 61.2664C111.204 61.8014 111.13 62.3562 111.137 62.9129C111.125 63.4521 111.191 63.9902 111.334 64.5103C111.453 64.9575 111.662 65.3757 111.948 65.7391C112.224 66.0873 112.577 66.3653 112.981 66.5501C113.434 66.7337 113.918 66.8256 114.407 66.8204C114.938 66.8404 115.47 66.774 115.98 66.6238C116.3 66.5351 116.613 66.42 116.914 66.2797L117.283 67.4102L116.914 67.5822C116.71 67.6728 116.495 67.7388 116.275 67.7788C115.984 67.8573 115.689 67.9147 115.39 67.9509C115.022 67.9769 114.652 67.9769 114.284 67.9509" fill="white"/>
<path d="M135.523 57.9733H136.875V67.8034H135.523V63.257H130.705V67.8034H129.328V57.9733H130.705V62.0774H135.523V57.9733Z" fill="white"/>
<path d="M156.54 67.8034C156.344 67.4348 156.098 67.0416 155.827 66.6238C155.557 66.206 155.262 65.7391 154.942 65.2722C154.623 64.8053 154.328 64.3137 153.984 63.8468C153.64 63.3799 153.32 62.8884 152.976 62.446L152.017 61.1681C151.698 60.7749 151.427 60.4308 151.157 60.1359V67.8034H149.805V57.9733H150.911C151.353 58.4402 151.82 59.0055 152.337 59.6199L153.836 61.5613C154.328 62.2248 154.795 62.8884 155.237 63.5273C155.68 64.1663 156.049 64.7561 156.344 65.2476V57.875H157.696V67.7051L156.54 67.8034Z" fill="white"/>
<path d="M170.209 62.8883C170.188 62.1239 170.322 61.3633 170.602 60.6519C170.823 60.0548 171.166 59.5106 171.61 59.0545C172.036 58.6252 172.547 58.2902 173.11 58.0715C173.691 57.8511 174.308 57.7427 174.929 57.752C175.542 57.7458 176.15 57.8541 176.723 58.0715C177.283 58.2842 177.787 58.6202 178.198 59.0545C178.658 59.5028 179.011 60.0487 179.231 60.6519C179.722 62.094 179.722 63.6579 179.231 65.1001C179.011 65.7032 178.658 66.2492 178.198 66.6974C177.787 67.1317 177.283 67.4677 176.723 67.6805C176.15 67.8978 175.542 68.0062 174.929 67.9999C174.308 68.0093 173.691 67.9009 173.11 67.6805C172.547 67.4617 172.036 67.1268 171.61 66.6974C171.166 66.2414 170.823 65.6972 170.602 65.1001C170.324 64.3967 170.19 63.6445 170.209 62.8883ZM171.66 62.8883C171.654 63.4368 171.728 63.9833 171.881 64.5102C172.017 64.9604 172.243 65.3783 172.544 65.739C172.811 66.08 173.157 66.3501 173.552 66.5254C173.98 66.7071 174.44 66.7991 174.904 66.7958C175.369 66.8013 175.83 66.7092 176.256 66.5254C176.652 66.3501 176.998 66.08 177.264 65.739C177.549 65.371 177.766 64.9548 177.903 64.5102C178.065 63.9846 178.147 63.4381 178.149 62.8883C178.151 62.3382 178.068 61.7911 177.903 61.2663C177.771 60.812 177.554 60.3868 177.264 60.013C176.992 59.6785 176.647 59.4098 176.256 59.2265C175.83 59.0428 175.369 58.9507 174.904 58.9562C174.44 58.9528 173.98 59.0449 173.552 59.2265C173.162 59.4098 172.817 59.6785 172.544 60.013C172.237 60.3793 172.011 60.8064 171.881 61.2663C171.725 61.7925 171.65 62.3395 171.66 62.8883Z" fill="white"/>
<path d="M198.036 66.5992V67.8034H192.111V57.9733H193.488V66.5992H198.036Z" fill="white"/>
<path d="M208.951 62.8883C208.935 62.1265 209.06 61.3683 209.319 60.6519C209.548 60.0533 209.9 59.5092 210.352 59.0545C210.772 58.6197 211.285 58.284 211.851 58.0715C212.432 57.8511 213.049 57.7427 213.67 57.752C214.283 57.7458 214.892 57.8541 215.465 58.0715C216.024 58.2842 216.528 58.6202 216.94 59.0545C217.392 59.5042 217.737 60.0503 217.948 60.6519C218.472 62.0883 218.472 63.6637 217.948 65.1001C217.737 65.7017 217.392 66.2478 216.94 66.6974C216.528 67.1317 216.024 67.4677 215.465 67.6805C214.892 67.8978 214.283 68.0062 213.67 67.9999C213.049 68.0093 212.432 67.9009 211.851 67.6805C211.285 67.468 210.772 67.1322 210.352 66.6974C209.9 66.2428 209.548 65.6987 209.319 65.1001C209.062 64.3916 208.937 63.6419 208.951 62.8883ZM210.401 62.8883C210.395 63.4368 210.47 63.9833 210.622 64.5102C210.76 64.9548 210.976 65.371 211.261 65.739C211.542 66.0757 211.895 66.3446 212.294 66.5254C212.722 66.7039 213.182 66.7958 213.646 66.7958C214.11 66.7958 214.569 66.7039 214.998 66.5254C215.393 66.3501 215.74 66.08 216.006 65.739C216.291 65.371 216.507 64.9548 216.645 64.5102C216.797 63.9833 216.872 63.4368 216.866 62.8883C216.875 62.3395 216.801 61.7925 216.645 61.2663C216.513 60.812 216.296 60.3868 216.006 60.013C215.733 59.6785 215.389 59.4098 214.998 59.2265C214.569 59.0481 214.11 58.9562 213.646 58.9562C213.182 58.9562 212.722 59.0481 212.294 59.2265C211.899 59.4153 211.548 59.683 211.261 60.013C210.971 60.3868 210.754 60.812 210.622 61.2663C210.466 61.7925 210.391 62.3395 210.401 62.8883Z" fill="white"/>
<path d="M236.826 62.962H238.203V67.5576L237.711 67.6805L236.974 67.8279H236.064H235.057C234.41 67.8322 233.768 67.7155 233.164 67.4838C232.61 67.2615 232.115 66.9171 231.713 66.4763C231.293 66.0156 230.974 65.4712 230.779 64.8789C230.542 64.1829 230.425 63.4515 230.435 62.7162C230.418 61.9704 230.544 61.2282 230.804 60.529C231.038 59.9257 231.389 59.3745 231.836 58.9071C232.248 58.4728 232.752 58.1368 233.311 57.924C233.9 57.6988 234.525 57.5823 235.155 57.58C235.548 57.5524 235.942 57.5524 236.335 57.58L237.22 57.7766L237.834 58.0223L238.154 58.1944L237.711 59.3248C237.374 59.1266 237.01 58.9776 236.63 58.8825C236.172 58.7647 235.701 58.7069 235.229 58.7105C234.756 58.7098 234.289 58.8016 233.852 58.9808C233.449 59.1552 233.095 59.4251 232.82 59.7672C232.509 60.1258 232.275 60.5439 232.131 60.996C231.977 61.531 231.903 62.0858 231.91 62.6425C231.898 63.1817 231.964 63.7197 232.107 64.2399C232.226 64.6871 232.435 65.1053 232.721 65.4687C233.007 65.8055 233.359 66.0813 233.754 66.2797C234.215 66.4634 234.708 66.5552 235.204 66.55H236.236L236.826 66.4271V62.962Z" fill="white"/>
<path d="M252.214 57.9733H250.838V67.7788H252.214V57.9733Z" fill="white"/>
<path d="M265.145 67.8034V57.9733H271.143V59.1529H266.521V62.0774H270.626V63.2078H266.521V66.6238H271.487V67.8034H265.145Z" fill="white"/>
<path d="M285.991 66.8204C287.441 66.8204 288.154 66.3289 288.154 65.3458C288.156 65.0713 288.088 64.8007 287.957 64.5594C287.825 64.345 287.649 64.1608 287.441 64.0188C287.212 63.8588 286.964 63.7268 286.704 63.6256C286.416 63.492 286.121 63.3771 285.819 63.2815C285.467 63.1615 285.122 63.022 284.786 62.8637C284.486 62.71 284.205 62.5202 283.95 62.2985C283.716 62.0875 283.532 61.8274 283.41 61.5367C283.251 61.2078 283.175 60.8449 283.188 60.4799C283.169 60.0984 283.239 59.7176 283.393 59.3678C283.546 59.0179 283.779 58.7088 284.073 58.4647C284.787 57.9527 285.655 57.7012 286.532 57.7521C287.078 57.7508 287.623 57.8168 288.154 57.9487C288.526 58.0332 288.882 58.1741 289.211 58.3664L288.769 59.4723C288.493 59.3136 288.194 59.1975 287.884 59.1283C287.446 58.9939 286.99 58.9276 286.532 58.9317C286.287 58.9045 286.039 58.9045 285.794 58.9317C285.577 58.9792 285.369 59.0622 285.18 59.1774C285.017 59.294 284.883 59.4451 284.786 59.6198C284.683 59.8078 284.632 60.0199 284.639 60.2342C284.602 60.4631 284.632 60.6977 284.723 60.9108C284.814 61.1239 284.964 61.3068 285.155 61.4384C285.364 61.589 285.586 61.7206 285.819 61.8316L286.654 62.151L287.81 62.6671C288.151 62.8222 288.466 63.0295 288.744 63.2815C289.016 63.5393 289.23 63.8527 289.37 64.2005C289.51 64.5483 289.573 64.9222 289.555 65.2967C289.574 65.6821 289.497 66.0663 289.329 66.414C289.162 66.7617 288.91 67.062 288.597 67.2873C287.81 67.7984 286.878 68.0399 285.942 67.9754C285.59 68.0016 285.236 68.0016 284.885 67.9754L284 67.8034C283.778 67.7449 283.564 67.6625 283.36 67.5576L282.918 67.361L283.336 66.2306C283.65 66.3996 283.979 66.5395 284.319 66.6483C284.845 66.8079 285.392 66.8825 285.942 66.8695" fill="white"/>
<g clip-path="url(#clip1_23_4171)">
<path d="M103.893 0V15.7391H66.5332V0H59.8652V38.0401H66.5332V22.3253H103.893V38.0401H110.586V0H103.893Z" fill="white"/>
<path d="M144.905 0L119.238 38.0401H127.279L132.182 30.8001L136.619 24.1897L148.435 6.68305L160.275 24.1897L164.688 30.8001L169.616 38.0401H177.632L151.965 0H144.905Z" fill="white"/>
<path d="M276.228 0L250.537 38.0401H258.602L263.481 30.8001L267.942 24.1897L279.758 6.68305L291.574 24.1897L296.011 30.8001L300.914 38.0401H308.955L283.288 0H276.228Z" fill="white"/>
<path d="M317.609 0V38.0401H361V31.4297H324.277V0H317.609Z" fill="white"/>
<mask id="mask0_23_4171" style="mask-type:luminance" maskUnits="userSpaceOnUse" x="0" y="0" width="361" height="67">
<path d="M361 0H0V67H361V0Z" fill="white"/>
</mask>
<g mask="url(#mask0_23_4171)">
<path d="M214.134 8.6443C209.858 8.73408 205.677 7.39446 202.269 4.84271C197.779 1.59922 192.337 -0.10182 186.775 -8.25932e-05V6.73139C191.06 6.6342 195.251 7.97431 198.665 10.533C203.144 13.7795 208.579 15.4812 214.134 15.3758C219.695 15.4775 225.137 13.7765 229.627 10.533C233.041 7.97431 237.232 6.6342 241.516 6.73139V0.120976C235.955 0.0192385 230.513 1.72028 226.023 4.96377C222.605 7.5156 218.417 8.85491 214.134 8.76535" fill="white"/>
<path d="M214.134 26.4417C209.858 26.5314 205.677 25.1918 202.269 22.6401C197.779 19.3966 192.337 17.6955 186.775 17.7973V38.0401H193.468V25.4489C195.299 26.1747 197.042 27.1006 198.665 28.2093C203.144 31.4558 208.579 33.1575 214.134 33.0521C219.695 33.1538 225.137 31.4528 229.627 28.2093C231.249 27.1006 232.993 26.1747 234.824 25.4489V38.0401H241.516V17.7973C235.955 17.6955 230.513 19.3966 226.023 22.6401C222.605 25.1919 218.417 26.5312 214.134 26.4417Z" fill="white"/>
<path d="M40.9882 38.04H2.08373V31.4296H40.9882C41.8269 31.4296 42.6313 31.1005 43.2243 30.5147C43.8174 29.9289 44.1506 29.1345 44.1506 28.306V25.8846C44.1506 25.054 43.8182 24.2569 43.2258 23.6673C42.6335 23.0777 41.8291 22.7432 40.9882 22.7368H10.3451C8.98657 22.7368 7.64133 22.4725 6.38621 21.959C5.13108 21.4455 3.99064 20.6928 3.03001 19.7439C1.08993 17.8276 0 15.2286 0 12.5185V10.3393C0 7.6292 1.08993 5.03015 3.03001 3.11385C4.97009 1.19755 7.60141 0.120972 10.3451 0.120972H48.6612V6.73139H10.3451C9.37636 6.73139 8.44729 7.1115 7.76229 7.78811C7.07728 8.46472 6.69245 9.38239 6.69245 10.3393V12.5185C6.69243 13.4776 7.07648 14.3978 7.76079 15.0783C8.4451 15.7587 9.37411 16.1442 10.3451 16.1506H40.9882C42.2759 16.1506 43.551 16.4011 44.7407 16.8879C45.9304 17.3746 47.0114 18.0881 47.9219 18.9874C48.8325 19.8868 49.5548 20.9546 50.0476 22.1297C50.5403 23.3048 50.794 24.5643 50.794 25.8362V28.2576C50.794 30.8264 49.7609 33.2899 47.9219 35.1063C46.083 36.9227 43.5888 37.9432 40.9882 37.9432" fill="white"/>
<path d="M79.7213 57.1207V58.283H76.6569V66.8063H75.2841V58.283H72.1953V57.1207H79.7213Z" fill="white"/>
<path d="M91.6348 66.8063V57.1207H97.6163V58.283H93.0076V61.1645H97.1015V62.2783H93.0076V65.644H97.9595V66.8063H91.6348Z" fill="white"/>
<path d="M113.967 67C113.322 67.0042 112.682 66.8893 112.079 66.661C111.526 66.4568 111.03 66.1247 110.633 65.6924C110.21 65.2319 109.892 64.6869 109.701 64.0943C109.463 63.4007 109.347 62.6717 109.358 61.9393C109.346 61.2048 109.471 60.4743 109.726 59.7842C109.951 59.1928 110.302 58.656 110.756 58.2103C111.166 57.7824 111.669 57.4514 112.226 57.2418C112.801 57.0064 113.419 56.891 114.04 56.9028C114.4 56.8762 114.76 56.8762 115.119 56.9028C115.41 56.9451 115.697 57.0098 115.977 57.0965L116.565 57.3144L116.884 57.4839L116.492 58.5977L116.124 58.4282L115.56 58.2345L114.849 58.1377H114.139C113.658 58.1178 113.18 58.209 112.741 58.404C112.331 58.5739 111.963 58.8301 111.663 59.1547C111.356 59.5156 111.131 59.9365 111.001 60.3896C110.84 60.9075 110.757 61.446 110.756 61.9877C110.75 62.5282 110.824 63.0666 110.976 63.5858C111.095 64.0265 111.303 64.4385 111.589 64.7965C111.863 65.1396 112.216 65.4135 112.619 65.5956C113.069 65.7791 113.553 65.8697 114.04 65.8619C114.57 65.8714 115.098 65.8062 115.609 65.6682C115.929 65.5808 116.24 65.4674 116.541 65.3292L116.909 66.4431L116.541 66.6126C116.337 66.7018 116.123 66.7668 115.904 66.8063C115.614 66.8835 115.319 66.9402 115.021 66.9758C114.654 67.0014 114.285 67.0014 113.918 66.9758" fill="white"/>
<path d="M135.148 57.1207H136.497V66.8063H135.148V62.3267H130.344V66.8063H128.971V57.1207H130.344V61.1645H135.148V57.1207Z" fill="white"/>
<path d="M156.108 66.7821L155.397 65.644C155.127 65.2082 154.833 64.7481 154.514 64.288C154.195 63.828 153.877 63.3679 153.558 62.9078C153.239 62.4478 152.896 61.9635 152.553 61.5276C152.21 61.0918 151.916 60.6559 151.597 60.2685C151.278 59.8811 151.009 59.5421 150.739 59.2515V66.7821H149.391V57.0965H150.469C150.978 57.6063 151.453 58.1482 151.891 58.7188C152.406 59.3484 152.896 59.9779 153.386 60.6317C153.877 61.2855 154.367 61.9393 154.808 62.5688L155.911 64.2638V56.9996H157.26V66.6852L156.108 66.7821Z" fill="white"/>
<path d="M169.738 61.9393C169.724 61.1967 169.848 60.458 170.105 59.76C170.339 59.1656 170.689 58.6225 171.135 58.1619C171.562 57.7487 172.071 57.4272 172.63 57.2175C173.209 57.0004 173.825 56.8936 174.444 56.9028C175.056 56.8966 175.663 57.0034 176.234 57.2175C176.786 57.4276 177.287 57.7493 177.705 58.1619C178.151 58.6183 178.493 59.163 178.71 59.76C178.988 60.453 179.121 61.1942 179.102 61.9393C179.123 62.6924 178.99 63.4418 178.71 64.1427C178.499 64.7355 178.156 65.2736 177.705 65.7166C177.294 66.1446 176.792 66.4756 176.234 66.6852C175.663 66.8994 175.056 67.0061 174.444 67C173.825 67.0092 173.209 66.9024 172.63 66.6852C172.065 66.4759 171.555 66.145 171.135 65.7166C170.684 65.2687 170.334 64.7325 170.105 64.1427C169.847 63.4368 169.722 62.6898 169.738 61.9393ZM171.184 61.9393C171.175 62.48 171.249 63.0189 171.405 63.5374C171.537 63.985 171.753 64.4039 172.042 64.7723C172.328 65.0974 172.678 65.3612 173.072 65.5471C173.498 65.7262 173.957 65.8168 174.42 65.8135C174.883 65.8168 175.342 65.7262 175.768 65.5471C176.158 65.3666 176.501 65.1018 176.773 64.7723C177.063 64.4039 177.279 63.985 177.411 63.5374C177.566 63.0189 177.641 62.48 177.631 61.9393C177.637 61.3988 177.563 60.8604 177.411 60.3411C177.273 59.9031 177.057 59.493 176.773 59.1304C176.508 58.7944 176.163 58.5283 175.768 58.3556C175.346 58.1654 174.884 58.0743 174.42 58.0892C173.956 58.0743 173.494 58.1654 173.072 58.3556C172.674 58.5338 172.322 58.7987 172.042 59.1304C171.758 59.493 171.542 59.9031 171.405 60.3411C171.253 60.8604 171.178 61.3988 171.184 61.9393Z" fill="white"/>
<path d="M197.488 65.6198V66.8063H191.58V57.1207H192.953V65.6198H197.488Z" fill="white"/>
<path d="M208.349 61.9393C208.335 61.1967 208.46 60.458 208.717 59.76C208.942 59.1616 209.293 58.6169 209.746 58.1619C210.174 57.7487 210.683 57.4272 211.242 57.2175C211.821 57.0004 212.436 56.8936 213.056 56.9028C213.667 56.8966 214.274 57.0034 214.845 57.2175C215.397 57.4276 215.898 57.7493 216.316 58.1619C216.754 58.6246 217.095 59.1675 217.321 59.76C217.587 60.4563 217.72 61.1952 217.713 61.9393C217.722 62.6914 217.589 63.4385 217.321 64.1427C217.101 64.7311 216.759 65.2673 216.316 65.7166C215.906 66.1446 215.403 66.4756 214.845 66.6852C214.274 66.8994 213.667 67.0061 213.056 67C212.436 67.0092 211.821 66.9024 211.242 66.6852C210.677 66.4759 210.166 66.145 209.746 65.7166C209.288 65.275 208.936 64.7371 208.717 64.1427C208.458 63.4368 208.333 62.6898 208.349 61.9393ZM209.795 61.9393C209.786 62.48 209.86 63.0189 210.016 63.5374C210.148 63.985 210.364 64.4039 210.653 64.7723C210.935 65.1023 211.286 65.3669 211.683 65.5471C212.109 65.7282 212.568 65.8189 213.031 65.8135C213.494 65.8141 213.952 65.7236 214.38 65.5471C214.75 65.3787 215.083 65.1402 215.36 64.8449C215.649 64.4766 215.866 64.0576 215.997 63.61C216.153 63.0916 216.228 62.5526 216.218 62.0119C216.224 61.4714 216.15 60.933 215.997 60.4138C215.86 59.9758 215.644 59.5657 215.36 59.2031C215.09 58.8718 214.746 58.6066 214.355 58.4282C213.932 58.2405 213.471 58.1495 213.007 58.1619C212.542 58.1442 212.08 58.2355 211.658 58.4282C211.257 58.6001 210.903 58.8661 210.629 59.2031C210.345 59.5657 210.129 59.9758 209.991 60.4138C209.839 60.933 209.765 61.4714 209.771 62.0119" fill="white"/>
<path d="M236.171 62.0362H237.544V66.5642H237.054L236.319 66.7094H235.411C235.077 66.7335 234.741 66.7335 234.406 66.7094C233.763 66.7214 233.123 66.6147 232.519 66.3947C231.969 66.1727 231.475 65.8337 231.072 65.4019C230.645 64.9541 230.326 64.4158 230.141 63.828C229.904 63.1339 229.788 62.4053 229.798 61.6729C229.786 60.9384 229.91 60.208 230.165 59.5179C230.39 58.9264 230.742 58.3897 231.195 57.944C231.605 57.5161 232.108 57.185 232.666 56.9754C233.249 56.7402 233.875 56.6248 234.504 56.6364C234.896 56.6093 235.289 56.6093 235.681 56.6364C235.98 56.679 236.275 56.7438 236.564 56.8302L237.177 57.0481L237.422 57.5808L236.98 58.7188C236.637 58.5194 236.265 58.3725 235.877 58.283C235.429 58.1657 234.968 58.1087 234.504 58.1135C234.032 58.0983 233.563 58.1893 233.132 58.3799C232.736 58.551 232.384 58.8075 232.102 59.1305C231.797 59.496 231.564 59.9149 231.416 60.3654C231.255 60.8833 231.172 61.4218 231.17 61.9635C231.165 62.504 231.239 63.0424 231.391 63.5616C231.51 64.0023 231.718 64.4143 232.004 64.7723C232.278 65.1155 232.631 65.3893 233.034 65.5714C233.494 65.7524 233.985 65.8429 234.48 65.8377C234.814 65.8664 235.151 65.8664 235.485 65.8377H236.098L236.171 62.0362Z" fill="white"/>
<path d="M251.519 57.1207H250.146V66.7821H251.519V57.1207Z" fill="white"/>
<path d="M264.412 66.8063V57.1207H270.394V58.283H265.785V61.1645H269.879V62.2783H265.785V65.644H270.737V66.8063H264.412Z" fill="white"/>
<path d="M285.202 65.8378C286.648 65.8378 287.359 65.3535 287.359 64.3849C287.364 64.114 287.297 63.8466 287.163 63.6101C287.031 63.3988 286.856 63.2173 286.648 63.0774C286.42 62.9119 286.173 62.7738 285.913 62.6657L285.03 62.351C284.679 62.2327 284.336 62.0953 284.001 61.9393C283.701 61.7878 283.421 61.6008 283.167 61.3824C282.939 61.1642 282.749 60.9106 282.603 60.6318C282.468 60.3012 282.401 59.9471 282.407 59.5906C282.388 59.2146 282.458 58.8394 282.611 58.4948C282.764 58.1501 282.996 57.8454 283.29 57.605C284 57.0987 284.866 56.8507 285.741 56.9028C286.287 56.8864 286.833 56.9517 287.359 57.0965C287.742 57.1649 288.108 57.3046 288.438 57.5082L287.996 58.5978C287.718 58.4421 287.422 58.3201 287.114 58.2346C286.665 58.1214 286.204 58.0644 285.741 58.0651C285.497 58.0286 285.249 58.0286 285.006 58.0651C284.795 58.1052 284.595 58.1876 284.417 58.3072C284.25 58.4155 284.114 58.566 284.025 58.7431C283.922 58.9283 283.872 59.1373 283.878 59.3484C283.867 59.5728 283.909 59.7966 284.001 60.0022C284.114 60.1839 284.264 60.3406 284.442 60.4623C284.645 60.6117 284.868 60.7338 285.104 60.8255C285.365 60.9573 285.635 61.0706 285.913 61.1645L287.089 61.673C287.426 61.8318 287.74 62.0355 288.021 62.2783C288.273 62.5089 288.474 62.7894 288.609 63.1016C288.767 63.4687 288.842 63.8652 288.83 64.2638C288.849 64.6436 288.772 65.0221 288.605 65.3647C288.438 65.7073 288.186 66.0032 287.874 66.2252C287.089 66.7288 286.16 66.9668 285.226 66.9032C284.875 66.9298 284.523 66.9298 284.172 66.9032C283.874 66.858 283.579 66.7933 283.29 66.7095C283.063 66.6551 282.842 66.5822 282.628 66.4915L282.211 66.2978L282.628 65.184C282.941 65.3451 283.269 65.4749 283.608 65.5714C284.128 65.7494 284.676 65.8315 285.226 65.8135" fill="white"/>
</g>
</g>
</g>
<defs>
<clipPath id="clip0_23_4171">
<rect width="362" height="68" fill="white"/>
</clipPath>
<clipPath id="clip1_23_4171">
<rect width="361" height="67" fill="white"/>
</clipPath>
</defs>
</svg>
