<svg width="362" height="68" viewBox="0 0 362 68" fill="none" xmlns="http://www.w3.org/2000/svg">
<g clip-path="url(#clip0_98_4480)">
<path d="M104.181 0V15.974H66.7177V0H60.0312V38.6079H66.7177V22.6585H104.181V38.6079H110.892V0H104.181Z" fill="white"/>
<path d="M145.308 0L119.57 38.6079H127.633L132.55 31.2598L136.999 24.5508L148.848 6.7828L160.721 24.5508L165.146 31.2598L170.087 38.6079H178.126L152.388 0H145.308Z" fill="white"/>
<path d="M276.997 0L251.234 38.6079H259.322L264.214 31.2598L268.688 24.5508L280.537 6.7828L292.385 24.5508L296.835 31.2598L301.751 38.6079H309.814L284.076 0H276.997Z" fill="white"/>
<path d="M318.484 0V38.6079H361.995V31.8988H325.171V0H318.484Z" fill="white"/>
<path d="M214.755 8.77387C210.46 8.86476 206.26 7.50546 202.833 4.91554C198.331 1.62364 192.874 -0.102786 187.297 0.000470045V6.70954C191.558 6.64643 195.718 8.004 199.121 10.5679C203.621 13.863 209.08 15.5898 214.657 15.4829C220.227 15.5899 225.677 13.8628 230.169 10.5679C233.598 7.98311 237.797 6.6244 242.091 6.70954V0.000470045C236.548 -0.0812767 231.128 1.64409 226.653 4.91554C223.234 7.50192 219.042 8.86113 214.755 8.77387Z" fill="white"/>
<path d="M214.755 26.8364C210.459 26.9389 206.255 25.5784 202.833 22.978C198.331 19.6861 192.874 17.9597 187.297 18.063V38.608H194.008V25.8288C195.81 26.572 197.525 27.5115 199.121 28.6304C203.621 31.9255 209.08 33.6523 214.657 33.5454C220.227 33.6524 225.677 31.9253 230.169 28.6304C231.796 27.5051 233.544 26.5654 235.38 25.8288V38.608H242.091V18.063C236.514 17.9597 231.057 19.6861 226.555 22.978C223.141 25.5748 218.946 26.9353 214.657 26.8364" fill="white"/>
<path d="M41.1025 38.6079H2.09023V31.948H41.1025C41.521 31.9448 41.9347 31.8588 42.3199 31.6949C42.705 31.5311 43.0539 31.2927 43.3464 30.9934C43.6389 30.6941 43.8693 30.3399 44.0242 29.9512C44.1791 29.5625 44.2555 29.147 44.249 28.7286V26.2711C44.249 25.4303 43.9149 24.6239 43.3202 24.0294C42.7255 23.4348 41.9189 23.1008 41.0779 23.1008H10.3745C9.00062 23.0977 7.641 22.8224 6.37419 22.2908C5.10737 21.7593 3.95848 20.9821 2.99389 20.0041C2.0293 19.026 1.26814 17.8666 0.754387 16.5928C0.240637 15.3189 -0.0155164 13.956 0.000726836 12.5826V10.3708C0.000726836 7.62029 1.09367 4.98244 3.03913 3.03754C4.98459 1.09263 7.62319 0 10.3745 0H48.8951V6.70907H10.3745C9.40306 6.70907 8.47142 7.09486 7.78452 7.78157C7.09761 8.46827 6.71171 9.39965 6.71171 10.3708V12.5826C6.71169 13.556 7.0968 14.4899 7.78301 15.1805C8.46922 15.8712 9.40081 16.2624 10.3745 16.2689H41.1025C43.7103 16.2689 46.2114 17.3046 48.0554 19.1481C49.8994 20.9916 50.9354 23.4919 50.9354 26.099V28.5566C50.9354 31.1637 49.8994 33.664 48.0554 35.5075C46.2114 37.351 43.7103 38.3867 41.1025 38.3867" fill="white"/>
<path d="M79.9374 57.9736V59.1532H76.8646V67.8038H75.488V59.1532H72.3906V57.9736H79.9374Z" fill="white"/>
<path d="M91.8906 67.8038V57.9736H97.8887V59.1532H93.2672V62.0777H97.3725V63.2082H93.2672V66.6242H98.2329V67.8038H91.8906Z" fill="white"/>
<path d="M114.28 67.9995C113.632 68.0106 112.989 67.8937 112.387 67.6555C111.835 67.4418 111.339 67.1056 110.937 66.6725C110.521 66.208 110.204 65.6648 110.003 65.0751C109.767 64.3702 109.651 63.631 109.658 62.8879C109.637 62.1395 109.771 61.3948 110.052 60.7006C110.269 60.0948 110.613 59.5419 111.06 59.0787C111.471 58.6444 111.975 58.3084 112.535 58.0957C113.114 57.8668 113.731 57.7501 114.354 57.7516C114.722 57.7247 115.092 57.7247 115.46 57.7516L116.296 57.9482L116.886 58.194L117.205 58.366L116.812 59.4965L116.443 59.2998L115.902 59.1032L115.214 58.9804H114.501C114.021 58.9771 113.545 59.069 113.1 59.2507C112.682 59.4234 112.311 59.693 112.018 60.0371C111.715 60.397 111.489 60.8152 111.355 61.2659C111.2 61.8009 111.126 62.3557 111.133 62.9124C111.121 63.4516 111.188 63.9897 111.33 64.5098C111.449 64.957 111.658 65.3752 111.945 65.7386C112.22 66.0868 112.573 66.3648 112.977 66.5496C113.43 66.7332 113.914 66.8251 114.403 66.8199C114.934 66.8399 115.466 66.7735 115.976 66.6233C116.296 66.5346 116.609 66.4195 116.91 66.2792L117.279 67.4097L116.91 67.5817C116.706 67.6723 116.491 67.7383 116.271 67.7783C115.981 67.8568 115.685 67.9143 115.386 67.9504C115.018 67.9764 114.648 67.9764 114.28 67.9504" fill="white"/>
<path d="M135.523 57.9736H136.875V67.8038H135.523V63.2573H130.705V67.8038H129.328V57.9736H130.705V62.0777H135.523V57.9736Z" fill="white"/>
<path d="M156.54 67.8034C156.344 67.4348 156.098 67.0416 155.827 66.6238C155.557 66.206 155.262 65.7391 154.942 65.2722C154.623 64.8053 154.328 64.3137 153.984 63.8468C153.64 63.3799 153.32 62.8884 152.976 62.446L152.017 61.1681C151.698 60.7749 151.427 60.4308 151.157 60.1359V67.8034H149.805V57.9733H150.911C151.353 58.4402 151.82 59.0055 152.337 59.6199L153.836 61.5613C154.328 62.2248 154.795 62.8884 155.237 63.5273C155.68 64.1663 156.049 64.7561 156.344 65.2476V57.875H157.696V67.7051L156.54 67.8034Z" fill="white"/>
<path d="M170.205 62.8888C170.184 62.1244 170.318 61.3638 170.599 60.6524C170.819 60.0553 171.162 59.5111 171.606 59.055C172.032 58.6257 172.543 58.2907 173.106 58.072C173.687 57.8516 174.304 57.7432 174.925 57.7525C175.538 57.7463 176.147 57.8546 176.72 58.072C177.279 58.2847 177.783 58.6207 178.195 59.055C178.654 59.5032 179.007 60.0492 179.227 60.6524C179.718 62.0945 179.718 63.6584 179.227 65.1005C179.007 65.7037 178.654 66.2497 178.195 66.6979C177.783 67.1322 177.279 67.4682 176.72 67.681C176.147 67.8983 175.538 68.0067 174.925 68.0004C174.304 68.0098 173.687 67.9014 173.106 67.681C172.543 67.4622 172.032 67.1273 171.606 66.6979C171.162 66.2419 170.819 65.6977 170.599 65.1005C170.32 64.3972 170.186 63.645 170.205 62.8888ZM171.656 62.8888C171.65 63.4373 171.724 63.9837 171.877 64.5107C172.013 64.9608 172.239 65.3788 172.541 65.7395C172.807 66.0805 173.153 66.3506 173.548 66.5259C173.976 66.7076 174.436 66.7996 174.9 66.7962C175.365 66.8018 175.826 66.7097 176.253 66.5259C176.648 66.3506 176.994 66.0805 177.26 65.7395C177.545 65.3715 177.762 64.9553 177.9 64.5107C178.061 63.9851 178.143 63.4385 178.145 62.8888C178.147 62.3387 178.064 61.7916 177.9 61.2668C177.767 60.8125 177.55 60.3873 177.26 60.0134C176.988 59.679 176.643 59.4103 176.253 59.227C175.826 59.0433 175.365 58.9512 174.9 58.9567C174.436 58.9533 173.976 59.0453 173.548 59.227C173.158 59.4103 172.813 59.679 172.541 60.0134C172.233 60.3798 172.007 60.8069 171.877 61.2668C171.721 61.793 171.646 62.34 171.656 62.8888Z" fill="white"/>
<path d="M198.034 66.5996V67.8038H192.109V57.9736H193.486V66.5996H198.034Z" fill="white"/>
<path d="M208.954 62.8888C208.939 62.127 209.064 61.3688 209.323 60.6524C209.552 60.0538 209.904 59.5097 210.356 59.055C210.776 58.6202 211.289 58.2845 211.855 58.072C212.436 57.8516 213.053 57.7432 213.674 57.7525C214.287 57.7463 214.896 57.8546 215.469 58.072C216.028 58.2847 216.532 58.6207 216.944 59.055C217.396 59.5047 217.74 60.0508 217.952 60.6524C218.476 62.0888 218.476 63.6642 217.952 65.1005C217.74 65.7022 217.396 66.2483 216.944 66.6979C216.532 67.1322 216.028 67.4682 215.469 67.681C214.896 67.8983 214.287 68.0067 213.674 68.0004C213.053 68.0098 212.436 67.9014 211.855 67.681C211.289 67.4685 210.776 67.1327 210.356 66.6979C209.904 66.2433 209.552 65.6992 209.323 65.1005C209.066 64.3921 208.941 63.6424 208.954 62.8888ZM210.405 62.8888C210.399 63.4373 210.474 63.9837 210.626 64.5107C210.764 64.9553 210.98 65.3715 211.265 65.7395C211.546 66.0762 211.898 66.3451 212.298 66.5259C212.726 66.7044 213.186 66.7962 213.65 66.7962C214.114 66.7962 214.573 66.7044 215.002 66.5259C215.397 66.3506 215.743 66.0805 216.01 65.7395C216.295 65.3715 216.511 64.9553 216.649 64.5107C216.801 63.9837 216.876 63.4373 216.87 62.8888C216.879 62.34 216.805 61.793 216.649 61.2668C216.516 60.8125 216.3 60.3873 216.01 60.0134C215.737 59.679 215.392 59.4103 215.002 59.227C214.573 59.0486 214.114 58.9567 213.65 58.9567C213.186 58.9567 212.726 59.0486 212.298 59.227C211.903 59.4158 211.552 59.6835 211.265 60.0134C210.975 60.3873 210.758 60.8125 210.626 61.2668C210.47 61.793 210.395 62.34 210.405 62.8888Z" fill="white"/>
<path d="M236.83 62.9622H238.207V67.5578L237.715 67.6807L236.978 67.8282H236.068H235.06C234.414 67.8325 233.772 67.7158 233.168 67.4841C232.614 67.2617 232.119 66.9173 231.717 66.4765C231.297 66.0158 230.978 65.4715 230.783 64.8791C230.546 64.1832 230.429 63.4517 230.439 62.7165C230.422 61.9707 230.548 61.2285 230.808 60.5293C231.042 59.9259 231.393 59.3747 231.84 58.9073C232.252 58.473 232.756 58.137 233.315 57.9243C233.904 57.6991 234.528 57.5825 235.159 57.5802C235.552 57.5527 235.946 57.5527 236.339 57.5802L237.224 57.7768L237.838 58.0226L238.158 58.1946L237.715 59.3251C237.378 59.1268 237.014 58.9779 236.634 58.8827C236.176 58.765 235.705 58.7071 235.233 58.7107C234.76 58.71 234.293 58.8019 233.856 58.981C233.453 59.1555 233.099 59.4254 232.823 59.7674C232.513 60.126 232.279 60.5441 232.135 60.9962C231.981 61.5312 231.906 62.086 231.914 62.6428C231.902 63.1819 231.968 63.72 232.111 64.2401C232.229 64.6874 232.439 65.1055 232.725 65.4689C233.011 65.8058 233.362 66.0816 233.758 66.2799C234.219 66.4636 234.711 66.5554 235.208 66.5502H236.24L236.83 66.4274V62.9622Z" fill="white"/>
<path d="M252.22 57.9736H250.844V67.7792H252.22V57.9736Z" fill="white"/>
<path d="M265.141 67.8038V57.9736H271.139V59.1532H266.517V62.0777H270.622V63.2082H266.517V66.6242H271.483V67.8038H265.141Z" fill="white"/>
<path d="M285.995 66.8208C287.445 66.8208 288.158 66.3293 288.158 65.3463C288.16 65.0718 288.092 64.8012 287.961 64.5599C287.829 64.3455 287.653 64.1612 287.445 64.0193C287.216 63.8593 286.968 63.7273 286.708 63.626C286.42 63.4925 286.125 63.3776 285.823 63.282C285.471 63.162 285.126 63.0225 284.79 62.8642C284.49 62.7105 284.209 62.5206 283.954 62.299C283.72 62.088 283.535 61.8278 283.414 61.5371C283.255 61.2082 283.179 60.8454 283.192 60.4804C283.173 60.0989 283.243 59.7181 283.397 59.3682C283.55 59.0184 283.783 58.7092 284.077 58.4652C284.791 57.9532 285.659 57.7017 286.535 57.7525C287.082 57.7513 287.627 57.8173 288.158 57.9491C288.53 58.0337 288.886 58.1746 289.215 58.3669L288.772 59.4728C288.497 59.314 288.198 59.198 287.888 59.1288C287.45 58.9944 286.994 58.9281 286.535 58.9322C286.29 58.905 286.043 58.905 285.798 58.9322C285.581 58.9797 285.373 59.0627 285.183 59.1779C285.021 59.2945 284.887 59.4456 284.79 59.6203C284.687 59.8083 284.636 60.0204 284.643 60.2347C284.606 60.4636 284.635 60.6982 284.727 60.9113C284.818 61.1243 284.968 61.3072 285.159 61.4388C285.368 61.5895 285.59 61.7211 285.823 61.832L286.658 62.1515L287.814 62.6676C288.155 62.8227 288.47 63.03 288.748 63.282C289.02 63.5398 289.234 63.8532 289.374 64.201C289.514 64.5488 289.577 64.9227 289.559 65.2972C289.578 65.6826 289.501 66.0668 289.333 66.4145C289.166 66.7622 288.914 67.0624 288.6 67.2878C287.814 67.7989 286.882 68.0404 285.946 67.9759C285.594 68.002 285.24 68.002 284.888 67.9759L284.004 67.8039C283.782 67.7454 283.568 67.663 283.364 67.5581L282.922 67.3615L283.34 66.231C283.654 66.4001 283.983 66.54 284.323 66.6488C284.849 66.8084 285.396 66.883 285.946 66.87" fill="white"/>
<g clip-path="url(#clip1_98_4480)">
<path d="M103.887 0V15.7391H66.5273V0H59.8594V38.0401H66.5273V22.3253H103.887V38.0401H110.58V0H103.887Z" fill="#0A3254"/>
<path d="M144.909 0L119.242 38.0401H127.283L132.186 30.8001L136.623 24.1897L148.439 6.68305L160.279 24.1897L164.692 30.8001L169.619 38.0401H177.636L151.969 0H144.909Z" fill="#0A3254"/>
<path d="M276.23 0L250.539 38.0401H258.604L263.483 30.8001L267.944 24.1897L279.76 6.68305L291.576 24.1897L296.013 30.8001L300.916 38.0401H308.957L283.29 0H276.23Z" fill="#0A3254"/>
<path d="M317.609 0V38.0401H361V31.4297H324.277V0H317.609Z" fill="#0A3254"/>
<mask id="mask0_98_4480" style="mask-type:luminance" maskUnits="userSpaceOnUse" x="0" y="0" width="361" height="67">
<path d="M361 0H0V67H361V0Z" fill="white"/>
</mask>
<g mask="url(#mask0_98_4480)">
<path d="M214.139 8.64478C209.864 8.73457 205.683 7.39494 202.274 4.8432C197.785 1.59971 192.343 -0.101332 186.781 0.000405688V6.73188C191.066 6.63469 195.257 7.9748 198.671 10.5335C203.15 13.78 208.585 15.4816 214.139 15.3763C219.701 15.478 225.143 13.777 229.633 10.5335C233.046 7.9748 237.238 6.63469 241.522 6.73188V0.121464C235.961 0.0197268 230.519 1.72077 226.029 4.96425C222.611 7.51609 218.423 8.8554 214.139 8.76584" fill="#226093"/>
<path d="M214.139 26.4417C209.864 26.5314 205.683 25.1918 202.274 22.6401C197.785 19.3966 192.343 17.6955 186.781 17.7973V38.0401H193.474V25.4489C195.305 26.1747 197.048 27.1006 198.671 28.2093C203.15 31.4558 208.585 33.1575 214.139 33.0521C219.701 33.1538 225.143 31.4528 229.633 28.2093C231.255 27.1006 232.998 26.1747 234.83 25.4489V38.0401H241.522V17.7973C235.961 17.6955 230.519 19.3966 226.029 22.6401C222.611 25.1919 218.423 26.5312 214.139 26.4417Z" fill="#0A3254"/>
<path d="M40.9882 38.0401H2.08373V31.4297H40.9882C41.8269 31.4297 42.6313 31.1006 43.2243 30.5149C43.8174 29.9291 44.1506 29.1346 44.1506 28.3061V25.8848C44.1506 25.0541 43.8182 24.2571 43.2258 23.6674C42.6335 23.0778 41.8291 22.7433 40.9882 22.7369H10.3451C8.98657 22.7369 7.64133 22.4726 6.38621 21.9591C5.13108 21.4456 3.99064 20.6929 3.03001 19.7441C1.08993 17.8278 0 15.2287 0 12.5186V10.3394C0 7.62933 1.08993 5.03028 3.03001 3.11398C4.97009 1.19767 7.60141 0.121094 10.3451 0.121094H48.6612V6.73151H10.3451C9.37636 6.73151 8.44729 7.11162 7.76229 7.78823C7.07728 8.46484 6.69245 9.38251 6.69245 10.3394V12.5186C6.69243 13.4778 7.07648 14.3979 7.76079 15.0784C8.4451 15.7589 9.37411 16.1443 10.3451 16.1507H40.9882C42.2759 16.1507 43.551 16.4013 44.7407 16.888C45.9304 17.3748 47.0114 18.0882 47.9219 18.9876C48.8325 19.887 49.5548 20.9547 50.0476 22.1298C50.5403 23.3049 50.794 24.5644 50.794 25.8363V28.2577C50.794 30.8265 49.7609 33.2901 47.9219 35.1064C46.083 36.9228 43.5888 37.9433 40.9882 37.9433" fill="#0A3254"/>
<path d="M79.7213 57.1211V58.2834H76.6569V66.8067H75.2841V58.2834H72.1953V57.1211H79.7213Z" fill="#939598"/>
<path d="M91.6406 66.8067V57.1211H97.6222V58.2834H93.0134V61.1648H97.1073V62.2787H93.0134V65.6444H97.9654V66.8067H91.6406Z" fill="#939598"/>
<path d="M113.969 67C113.324 67.0042 112.684 66.8893 112.081 66.661C111.528 66.4568 111.032 66.1247 110.635 65.6924C110.212 65.2319 109.894 64.6869 109.703 64.0943C109.465 63.4007 109.349 62.6717 109.36 61.9393C109.348 61.2048 109.473 60.4743 109.728 59.7842C109.953 59.1928 110.304 58.656 110.757 58.2103C111.168 57.7824 111.671 57.4514 112.228 57.2418C112.803 57.0064 113.421 56.891 114.042 56.9028C114.401 56.8762 114.762 56.8762 115.121 56.9028C115.412 56.9451 115.699 57.0098 115.979 57.0965L116.567 57.3144L116.886 57.4839L116.494 58.5977L116.126 58.4282L115.562 58.2345L114.851 58.1377H114.14C113.66 58.1178 113.182 58.209 112.743 58.404C112.333 58.5739 111.965 58.8301 111.665 59.1547C111.358 59.5156 111.133 59.9365 111.003 60.3896C110.842 60.9075 110.759 61.446 110.757 61.9877C110.752 62.5282 110.826 63.0666 110.978 63.5858C111.097 64.0265 111.305 64.4385 111.591 64.7965C111.865 65.1396 112.218 65.4135 112.621 65.5956C113.071 65.7791 113.555 65.8697 114.042 65.8619C114.572 65.8714 115.1 65.8062 115.611 65.6682C115.931 65.5808 116.242 65.4674 116.543 65.3292L116.911 66.4431L116.543 66.6126C116.339 66.7018 116.125 66.7668 115.906 66.8063C115.616 66.8835 115.321 66.9402 115.023 66.9758C114.656 67.0014 114.287 67.0014 113.92 66.9758" fill="#939598"/>
<path d="M135.146 57.1211H136.495V66.8067H135.146V62.3271H130.342V66.8067H128.969V57.1211H130.342V61.1648H135.146V57.1211Z" fill="#939598"/>
<path d="M156.108 66.7824L155.397 65.6444C155.127 65.2085 154.833 64.7485 154.514 64.2884C154.195 63.8283 153.877 63.3683 153.558 62.9082C153.239 62.4481 152.896 61.9639 152.553 61.528C152.21 61.0922 151.916 60.6563 151.597 60.2689C151.278 59.8815 151.009 59.5425 150.739 59.2519V66.7824H149.391V57.0969H150.469C150.978 57.6067 151.453 58.1486 151.891 58.7192C152.406 59.3488 152.896 59.9783 153.386 60.6321C153.877 61.2859 154.367 61.9397 154.808 62.5692L155.911 64.2642V57H157.26V66.6856L156.108 66.7824Z" fill="#939598"/>
<path d="M169.736 61.9394C169.722 61.1968 169.847 60.4581 170.103 59.7601C170.337 59.1657 170.687 58.6226 171.133 58.162C171.56 57.7488 172.069 57.4273 172.628 57.2177C173.208 57.0005 173.823 56.8937 174.442 56.9029C175.054 56.8967 175.661 57.0035 176.232 57.2177C176.784 57.4278 177.285 57.7494 177.703 58.162C178.149 58.6184 178.491 59.1632 178.708 59.7601C178.986 60.4531 179.119 61.1943 179.1 61.9394C179.121 62.6925 178.988 63.442 178.708 64.1429C178.497 64.7357 178.154 65.2737 177.703 65.7168C177.293 66.1447 176.79 66.4757 176.232 66.6853C175.661 66.8995 175.054 67.0063 174.442 67.0001C173.823 67.0093 173.208 66.9025 172.628 66.6853C172.063 66.476 171.553 66.1451 171.133 65.7168C170.682 65.2688 170.332 64.7327 170.103 64.1429C169.845 63.437 169.72 62.69 169.736 61.9394ZM171.182 61.9394C171.173 62.4801 171.247 63.019 171.403 63.5375C171.535 63.9851 171.751 64.4041 172.04 64.7724C172.326 65.0976 172.676 65.3613 173.07 65.5473C173.496 65.7263 173.955 65.8169 174.418 65.8136C174.881 65.8169 175.34 65.7263 175.766 65.5473C176.156 65.3667 176.499 65.1019 176.771 64.7724C177.061 64.4041 177.277 63.9851 177.409 63.5375C177.564 63.019 177.639 62.4801 177.629 61.9394C177.635 61.3989 177.561 60.8605 177.409 60.3413C177.271 59.9032 177.056 59.4931 176.771 59.1306C176.506 58.7946 176.161 58.5284 175.766 58.3557C175.344 58.1656 174.882 58.0744 174.418 58.0894C173.954 58.0744 173.492 58.1656 173.07 58.3557C172.672 58.5339 172.32 58.7988 172.04 59.1306C171.756 59.4931 171.54 59.9032 171.403 60.3413C171.251 60.8605 171.176 61.3989 171.182 61.9394Z" fill="#939598"/>
<path d="M197.486 65.6202V66.8067H191.578V57.1211H192.951V65.6202H197.486Z" fill="#939598"/>
<path d="M208.345 61.9394C208.331 61.1968 208.456 60.4581 208.713 59.7601C208.938 59.1617 209.289 58.6171 209.742 58.162C210.17 57.7488 210.679 57.4273 211.238 57.2177C211.817 57.0005 212.432 56.8937 213.052 56.9029C213.663 56.8967 214.27 57.0035 214.841 57.2177C215.393 57.4278 215.894 57.7494 216.312 58.162C216.75 58.6247 217.091 59.1677 217.317 59.7601C217.583 60.4564 217.716 61.1953 217.71 61.9394C217.718 62.6915 217.585 63.4387 217.317 64.1429C217.098 64.7312 216.755 65.2674 216.312 65.7168C215.902 66.1447 215.399 66.4757 214.841 66.6853C214.27 66.8995 213.663 67.0063 213.052 67.0001C212.432 67.0093 211.817 66.9025 211.238 66.6853C210.673 66.476 210.162 66.1451 209.742 65.7168C209.284 65.2751 208.932 64.7372 208.713 64.1429C208.454 63.437 208.329 62.69 208.345 61.9394ZM209.791 61.9394C209.782 62.4801 209.856 63.019 210.012 63.5375C210.144 63.9851 210.36 64.4041 210.649 64.7724C210.931 65.1024 211.282 65.367 211.679 65.5473C212.105 65.7283 212.564 65.8191 213.027 65.8136C213.49 65.8143 213.949 65.7237 214.376 65.5473C214.746 65.3789 215.079 65.1403 215.356 64.8451C215.645 64.4767 215.862 64.0577 215.994 63.6102C216.149 63.0917 216.224 62.5527 216.214 62.012C216.22 61.4716 216.146 60.9331 215.994 60.4139C215.856 59.9759 215.64 59.5658 215.356 59.2032C215.086 58.8719 214.742 58.6067 214.351 58.4284C213.928 58.2406 213.467 58.1496 213.003 58.162C212.538 58.1444 212.076 58.2356 211.655 58.4284C211.253 58.6002 210.899 58.8662 210.625 59.2032C210.341 59.5658 210.125 59.9759 209.988 60.4139C209.836 60.9331 209.761 61.4716 209.767 62.012" fill="#939598"/>
<path d="M236.171 62.0363H237.544V66.5643H237.054L236.319 66.7096H235.411C235.077 66.7337 234.741 66.7337 234.406 66.7096C233.763 66.7216 233.123 66.6148 232.519 66.3948C231.969 66.1728 231.475 65.8339 231.072 65.402C230.645 64.9543 230.326 64.416 230.141 63.8281C229.904 63.134 229.788 62.4054 229.798 61.6731C229.786 60.9385 229.91 60.2081 230.165 59.518C230.39 58.9265 230.742 58.3898 231.195 57.9441C231.605 57.5162 232.108 57.1852 232.666 56.9756C233.249 56.7403 233.875 56.6249 234.504 56.6366C234.896 56.6094 235.289 56.6094 235.681 56.6366C235.98 56.6791 236.275 56.7439 236.564 56.8303L237.177 57.0482L237.422 57.5809L236.98 58.719C236.637 58.5195 236.265 58.3726 235.877 58.2831C235.429 58.1659 234.968 58.1088 234.504 58.1136C234.032 58.0984 233.563 58.1895 233.132 58.38C232.736 58.5511 232.384 58.8076 232.102 59.1306C231.797 59.4961 231.564 59.915 231.416 60.3655C231.255 60.8835 231.172 61.4219 231.17 61.9636C231.165 62.5041 231.239 63.0425 231.391 63.5618C231.51 64.0024 231.718 64.4144 232.004 64.7725C232.278 65.1156 232.631 65.3895 233.034 65.5715C233.494 65.7525 233.985 65.843 234.48 65.8379C234.814 65.8665 235.151 65.8665 235.485 65.8379H236.098L236.171 62.0363Z" fill="#939598"/>
<path d="M251.513 57.1211H250.141V66.7825H251.513V57.1211Z" fill="#939598"/>
<path d="M264.414 66.8067V57.1211H270.396V58.2834H265.787V61.1648H269.881V62.2787H265.787V65.6444H270.739V66.8067H264.414Z" fill="#939598"/>
<path d="M285.202 65.8382C286.648 65.8382 287.359 65.354 287.359 64.3854C287.364 64.1145 287.297 63.8471 287.163 63.6106C287.031 63.3993 286.856 63.2178 286.648 63.0779C286.42 62.9124 286.173 62.7743 285.913 62.6662L285.03 62.3514C284.679 62.2332 284.336 62.0957 284.001 61.9398C283.701 61.7883 283.421 61.6013 283.167 61.3829C282.939 61.1646 282.749 60.9111 282.603 60.6322C282.468 60.3016 282.401 59.9476 282.407 59.5911C282.388 59.2151 282.458 58.8399 282.611 58.4952C282.764 58.1506 282.996 57.8459 283.29 57.6055C284 57.0992 284.866 56.8512 285.741 56.9033C286.287 56.8869 286.833 56.9522 287.359 57.097C287.742 57.1654 288.108 57.3051 288.438 57.5087L287.996 58.5983C287.718 58.4425 287.422 58.3206 287.114 58.2351C286.665 58.1219 286.204 58.0649 285.741 58.0656C285.497 58.029 285.249 58.029 285.006 58.0656C284.795 58.1057 284.595 58.1881 284.417 58.3077C284.25 58.416 284.114 58.5664 284.025 58.7436C283.922 58.9288 283.872 59.1378 283.878 59.3489C283.867 59.5733 283.909 59.797 284.001 60.0027C284.114 60.1844 284.264 60.3411 284.442 60.4627C284.645 60.6122 284.868 60.7343 285.104 60.826C285.365 60.9578 285.635 61.0711 285.913 61.165L287.089 61.6734C287.426 61.8323 287.74 62.036 288.021 62.2788C288.273 62.5094 288.474 62.7899 288.609 63.1021C288.767 63.4692 288.842 63.8657 288.83 64.2643C288.849 64.6441 288.772 65.0226 288.605 65.3652C288.438 65.7078 288.186 66.0037 287.874 66.2257C287.089 66.7293 286.16 66.9673 285.226 66.9037C284.875 66.9303 284.523 66.9303 284.172 66.9037C283.874 66.8585 283.579 66.7937 283.29 66.71C283.063 66.6556 282.842 66.5827 282.628 66.492L282.211 66.2983L282.628 65.1845C282.941 65.3456 283.269 65.4754 283.608 65.5719C284.128 65.7499 284.676 65.832 285.226 65.814" fill="#939598"/>
</g>
</g>
</g>
<defs>
<clipPath id="clip0_98_4480">
<rect width="362" height="68" fill="white"/>
</clipPath>
<clipPath id="clip1_98_4480">
<rect width="361" height="67" fill="white"/>
</clipPath>
</defs>
</svg>
