<svg width="512" height="512" viewBox="0 0 512 512" fill="none" xmlns="http://www.w3.org/2000/svg">
<rect width="512" height="512" fill="white"/>
<g clip-path="url(#clip0_634_4740)">
<path d="M256.523 184.729C216.571 184.729 197.563 172.571 175.556 158.424C151.059 142.753 123.286 124.954 70 124.954V170.86C109.953 170.86 128.961 183.018 150.967 197.164C175.464 212.836 203.191 230.635 256.523 230.635C309.855 230.635 337.536 212.836 362.034 197.164C384.04 183.018 403.047 170.86 443 170.86V125.185C389.714 125.185 361.941 142.983 337.49 158.655C315.483 172.801 296.476 184.96 256.523 184.96" fill="#266091"/>
<path d="M256.523 307.838C216.571 307.838 197.563 295.679 175.556 281.533C151.059 265.861 123.286 248.063 70 248.063V388.139H115.581V301.181C128.053 306.158 139.923 312.533 150.967 320.182C175.464 335.9 203.191 353.698 256.523 353.698C309.855 353.698 337.536 335.9 362.034 320.182C373.077 312.533 384.947 306.158 397.419 301.181V388.139H443V248.063C389.714 248.063 361.941 265.861 337.49 281.533C315.483 295.679 296.476 307.838 256.523 307.838Z" fill="#0E3050"/>
</g>
<defs>
<clipPath id="clip0_634_4740">
<rect width="373" height="263" fill="white" transform="translate(70 125)"/>
</clipPath>
</defs>
</svg>
